<svg height="48" viewBox="0 0 48 48" width="48" xmlns="http://www.w3.org/2000/svg"><path d="m0 0h48v48h-48z" fill="none"/><path d="m24 30a60.3 60.3 0 0 1 -13-1.3l-4-1.1v12.6a1.9 1.9 0 0 0 1.5 1.9l12 2.9a2.4 2.4 0 0 0 2.1-.8l1.4-1.7 1.4 1.7a2.1 2.1 0 0 0 1.6.8h.5l12-2.9a1.9 1.9 0 0 0 1.5-1.9v-12.6l-4 1.1a60.3 60.3 0 0 1 -13 1.3zm-7 8c-2 0-4-1.9-4-3s2-1 4-1 4 .9 4 2-2 2-4 2zm14 0c-2 0-4-.9-4-2s2-2 4-2 4-.1 4 1-2 3-4 3z"/><path d="m39.4 16-2.1-9.8a4 4 0 0 0 -3.9-3.2h-4.3a3.9 3.9 0 0 0 -3.4 1.9l-1.7 2.9-1.7-2.9a3.9 3.9 0 0 0 -3.4-1.9h-4.3a4 4 0 0 0 -3.9 3.2l-2.1 9.8c-4.1 1.3-6.6 3-6.6 5 0 3.9 9.8 7 22 7s22-3.1 22-7c0-2-2.5-3.7-6.6-5z"/></svg>