<?xml version="1.0" encoding="iso-8859-1"?>
<!-- Uploaded to: SVG Repo, www.svgrepo.com, Generator: SVG Repo Mixer Tools -->
<svg fill="#000000" height="800px" width="800px" version="1.1" id="Layer_1" xmlns="http://www.w3.org/2000/svg" xmlns:xlink="http://www.w3.org/1999/xlink" 
	 viewBox="0 0 512 512" xml:space="preserve">
<g>
	<g>
		<path d="M361.412,466.824V331.294c0-33.529-15.67-63.377-40.071-82.677c33.566-25.543,67.501-64.131,67.501-115.777
			C388.841,59.475,329.365,0,256,0S123.159,59.475,123.159,132.84c0,51.646,33.932,90.231,67.498,115.775
			c-24.401,19.298-40.068,49.149-40.068,82.679v135.529h-30.118V512h271.059v-45.176H361.412z M183.492,177.855
			c21.929,9.87,50.426,4.739,50.426,4.739s8.388-42.476-12.717-63.934c-12.802-13.017-33.503-15.306-47.819-15.096
			C185.458,69.582,217.925,45.176,256,45.176s70.542,24.406,82.62,58.389c-14.316-0.209-35.019,2.08-47.819,15.096
			c-21.106,21.457-12.717,63.934-12.717,63.934s28.499,5.129,50.426-4.739c-7.754,11.253-18.465,22.257-32.102,32.946
			c-14.598,11.442-29.526,20.027-40.406,25.598c-10.88-5.572-25.808-14.155-40.406-25.598
			C201.957,200.112,191.246,189.11,183.492,177.855z M316.235,466.824H195.765v-45.176h120.471V466.824z M316.235,376.471H195.765
			v-45.176c0-25.178,15.535-46.785,37.516-55.773C246.814,282.582,256,286.118,256,286.118s9.186-3.536,22.719-10.597
			c21.981,8.989,37.516,30.595,37.516,55.773V376.471z"/>
	</g>
</g>
</svg>