<?xml version="1.0" encoding="iso-8859-1"?>
<!-- Uploaded to: SVG Repo, www.svgrepo.com, Generator: SVG Repo Mixer Tools -->
<!DOCTYPE svg PUBLIC "-//W3C//DTD SVG 1.1//EN" "http://www.w3.org/Graphics/SVG/1.1/DTD/svg11.dtd">
<svg fill="#000000" version="1.1" id="Capa_1" xmlns="http://www.w3.org/2000/svg" xmlns:xlink="http://www.w3.org/1999/xlink" 
	 width="800px" height="800px" viewBox="0 0 43.468 43.468"
	 xml:space="preserve">
<g>
	<g>
		<ellipse cx="21.755" cy="29.529" rx="2.5" ry="1"/>
		<circle cx="14.963" cy="23.398" r="2.25"/>
		<circle cx="28.546" cy="23.398" r="2.25"/>
		<path d="M40.871,21.771C45.442,6.748,32.951,1.63,26.778,0.155c-2.178-0.52-3.834,0.621-4.937,1.862
			c-0.91-1.155-2.552-2.473-5.107-1.862C10.541,1.634-2.014,6.563,2.683,21.699c-1.487,1.199-2.449,3.086-2.449,5.207
			c0,2.969,1.885,5.484,4.463,6.291c3.262,6.242,9.805,10.271,17.068,10.271c7.269,0,13.821-4.041,17.079-10.295
			c2.541-0.832,4.391-3.328,4.391-6.269C43.234,24.826,42.308,22.975,40.871,21.771z M24.787,38.384
			c-0.656-0.414-1.77-0.688-3.031-0.688c-1.261,0-2.374,0.273-3.031,0.688V35.57h6.063v2.813H24.787z M36.992,29.468
			c-0.29,0-0.564-0.067-0.818-0.183c-1.268,3.679-3.938,6.714-7.387,8.488V33.57c0-1.104-0.896-2-2-2H16.724c-1.104,0-2,0.896-2,2
			v4.191c-3.444-1.777-6.113-4.816-7.374-8.496c-0.269,0.129-0.563,0.199-0.874,0.199c-1.244,0-2.242-1.146-2.242-2.562
			c0-1.418,0.998-2.563,2.242-2.563c0.006,0,0.012,0,0.019,0.002c0.342,0.584,0.734,1.147,1.179,1.687
			C7.258,24.6,7.03,23.131,7.03,21.673c0-0.697,0.068-1.358,0.167-2.002c2.164-9.125,10.22-6.449,14.537-8.352
			c0.013-0.006,0.022-0.019,0.035-0.025c0.003,0.008,0.006,0.018,0.009,0.025c3.332,8.808,12.365-0.606,14.542,8.39
			c0.096,0.632,0.161,1.281,0.161,1.964c0,1.458-0.228,2.927-0.644,4.354c0.442-0.537,0.836-1.101,1.179-1.687
			c1.233,0.019,2.218,1.156,2.218,2.562C39.234,28.32,38.236,29.468,36.992,29.468z"/>
	</g>
</g>
</svg>