<?xml version="1.0" encoding="iso-8859-1"?>
<!-- Uploaded to: SVG Repo, www.svgrepo.com, Generator: SVG Repo Mixer Tools -->
<svg height="800px" width="800px" version="1.1" id="Capa_1" xmlns="http://www.w3.org/2000/svg" xmlns:xlink="http://www.w3.org/1999/xlink" 
	 viewBox="0 0 57.423 57.423" xml:space="preserve">
<g>
	<g>
		<path style="fill:#010002;" d="M40.065,23.651c-8.172-4.312-16.692-7.994-25.688-10.201c-6.735-1.651-10.201,6.756-6.435,10.698
			c0.258,0.656,0.676,1.319,1.297,1.958c2.117,2.182,4.039,4.562,5.861,7.018c-3.329,0.141-6.67,0.111-9.877-0.363
			c-5.238-0.776-7.494,7.229-2.208,8.013c6.51,0.964,13.193,0.661,19.736,0.147c2.884-0.226,5.514-3.444,3.588-6.252
			c-1.131-1.647-2.28-3.305-3.462-4.942c2.995,1.214,5.933,2.579,8.838,4.056c1.98,2.811,3.783,5.736,5.354,8.816
			c1.836,3.603,7.246,0.431,5.414-3.166c-0.826-1.62-1.727-3.19-2.674-4.728C43.626,32.437,45.125,26.324,40.065,23.651z"/>
		<circle style="fill:#010002;" cx="51.272" cy="26.848" r="6.151"/>
	</g>
</g>
</svg>